/* XPM */
static char *_557246598559[] = {
/* columns rows colors chars-per-pixel */
"16 16 150 2 ",
"   c black",
".  c #010101",
"X  c #020201",
"o  c #020202",
"O  c #030302",
"+  c gray1",
"@  c #040404",
"#  c gray2",
"$  c #060606",
"%  c gray3",
"&  c #090909",
"*  c #0A090A",
"=  c #0B0B0B",
"-  c gray5",
";  c #0E0D0D",
":  c #0E0E0E",
">  c #0F0F0E",
",  c gray6",
"<  c #121211",
"1  c #111112",
"2  c #131313",
"3  c #181819",
"4  c gray10",
"5  c #1D1D1C",
"6  c #1E1E1D",
"7  c gray12",
"8  c #282928",
"9  c #292928",
"0  c #2A2A29",
"q  c #313131",
"w  c #333432",
"e  c #353534",
"r  c #353535",
"t  c #393939",
"y  c gray23",
"u  c #3C3C3B",
"i  c #3D3F3D",
"p  c #3F3F3E",
"a  c #414140",
"s  c #444444",
"d  c gray27",
"f  c #474846",
"g  c #484846",
"h  c #494A47",
"j  c #4A4B49",
"k  c #4C4E49",
"l  c #4E4D4D",
"z  c #4F504D",
"x  c #51534E",
"c  c #51524F",
"v  c #535351",
"b  c #535450",
"n  c #545552",
"m  c #555753",
"M  c #555555",
"N  c #555654",
"B  c #575756",
"V  c #575953",
"C  c #5A5C57",
"Z  c #5B5B5B",
"A  c #5B5C5A",
"S  c #5F605C",
"D  c #60625C",
"F  c #61625E",
"G  c gray38",
"H  c #646360",
"J  c #626460",
"K  c #646660",
"L  c #656661",
"P  c #656663",
"I  c #646763",
"U  c #676766",
"Y  c #676865",
"T  c #696B65",
"R  c #686967",
"E  c #6B6C67",
"W  c #696968",
"Q  c #6A6A69",
"!  c gray42",
"~  c #6C6C68",
"^  c #6D6D6D",
"/  c #6E7069",
"(  c #6F716B",
")  c #6F706C",
"_  c #6F706D",
"`  c #71736C",
"'  c #737372",
"]  c #727470",
"[  c #737472",
"{  c #747670",
"}  c #747473",
"|  c #747574",
" . c #777875",
".. c #787976",
"X. c #787B76",
"o. c #797B77",
"O. c #7B7A77",
"+. c #797879",
"@. c #7C7D7A",
"#. c #7E7F7A",
"$. c #7F817B",
"%. c #7F807D",
"&. c #81807F",
"*. c #81827F",
"=. c #848383",
"-. c #878586",
";. c #868885",
":. c #878986",
">. c #898B84",
",. c #898987",
"<. c #8A8A86",
"1. c #898988",
"2. c #8B8A8A",
"3. c #8A8A8B",
"4. c #908F8C",
"5. c #8D918B",
"6. c #90918F",
"7. c #92928E",
"8. c #919190",
"9. c #929690",
"0. c #949493",
"q. c #959793",
"w. c #979A95",
"e. c #979798",
"r. c #989898",
"t. c #999998",
"y. c #9A9B98",
"u. c #9A9A99",
"i. c #9B9C9A",
"p. c #9C9E98",
"a. c #A2A2A0",
"s. c #A3A7A1",
"d. c #A5A3A5",
"f. c #A9A8A3",
"g. c #A9AAA7",
"h. c #ABACAA",
"j. c #C4C4BF",
"k. c #C1C1C0",
"l. c #C3C3C3",
"z. c #C9C9C8",
"x. c #CACAC9",
"c. c #D6D6D2",
"v. c #DFDFD9",
"b. c #DEDEDC",
"n. c #E0E0DB",
"m. c #E2E3E1",
"M. c #E9E9E2",
"N. c #EBEBE8",
"B. c white",
"V. c None",
/* pixels */
"V.V.V.V.V.V.m ] ..| V.V.V.V.V.V.",
"V.V.V.V.F E p.` 9 a ] 8.V.V.V.V.",
"V.V.V./ T $.c     %   q ,.V.V.V.",
"V.V.F / ] V $ N E ,.W , U y.V.V.",
"V.V ` x D     u $ 7 j.n.z.| e.V.",
"V.x *.A     $   d c.M.N.G ! +.V.",
"k >.h   @   % y.b.f.v ^ l.% l | ",
"L S       $ 6.m.v.F   , y   i ..",
"F 7     3 y.h.3 O.B.y     , 9.L ",
"F w   e g.j 9 ~ a.k.p   1 ..q.d ",
"V.z h &.2   h 4.  $   % :.s.N V.",
"V._ #.1   O $ 7     , e.L &.Z V.",
"V.V.%.%     $     1 3.:.w.W V.V.",
"V.V.V.3.9       , -.i.9.} V.V.V.",
"V.V.V.V.6.&.N e d.z.5.Y V.V.V.V.",
"V.V.V.V.V.V.q.3.-.A V.V.V.V.V.V."
};
