/* XPM */
static char *_557246574737[] = {
/* columns rows colors chars-per-pixel */
"32 32 91 1 ",
"  c #010101",
". c #080807",
"X c #0A0B0A",
"o c #0F100F",
"O c #141414",
"+ c #1B1C1B",
"@ c #1F201E",
"# c #20201F",
"$ c #242424",
"% c #282827",
"& c #2C2C2B",
"* c #30312F",
"= c #343433",
"- c #373835",
"; c #383937",
": c #3B3B3A",
"> c #3F413E",
", c #41423F",
"< c #444543",
"1 c #4A4C47",
"2 c #4B4D49",
"3 c #4F504E",
"4 c #50524E",
"5 c #545553",
"6 c #585957",
"7 c #565758",
"8 c #5C5C5A",
"9 c #61625E",
"0 c #646562",
"q c #686766",
"w c #666863",
"e c #696B65",
"r c #6C6E6A",
"t c #6F716C",
"y c #71726D",
"u c #747572",
"i c #777873",
"p c #7A7C76",
"a c #767678",
"s c #7C7D7A",
"d c #7F817B",
"f c #81837D",
"g c #848482",
"h c #868A82",
"j c #898B85",
"k c #8C8C8A",
"l c #8F918C",
"z c #91938E",
"x c #949592",
"c c #969995",
"v c #9A9B96",
"b c #9C9C99",
"n c #9EA19B",
"m c #A1A39E",
"M c #A5A6A3",
"N c #A7A9A5",
"B c #ABACAA",
"V c #B1AFAF",
"C c #AFB0AE",
"Z c #B3B5AF",
"A c #AFAFB2",
"S c #B4B4B2",
"D c #B7BCB3",
"F c #B8BCB6",
"G c #BBBBBA",
"H c #BBC0B7",
"J c #BDC1BA",
"K c #C5C5BE",
"L c #C3C8BF",
"P c #C4C4C3",
"I c #C8C7C5",
"U c #C6C8C4",
"Y c #CACAC7",
"T c #CCCCCA",
"R c #D0CFC8",
"E c #CFD1CC",
"W c #D3D2CD",
"Q c #D4D4D2",
"! c #D7D8D6",
"~ c #DADAD5",
"^ c #DDDCDA",
"/ c #E1DEDF",
"( c #E3E2DE",
") c #E6E6E2",
"_ c #EAEAE6",
"` c #EEEEEB",
"' c #F1F1EF",
"] c #F5F5F4",
"[ c #F8F8F6",
"{ c white",
"} c None",
/* pixels */
"}}}}}}}}}}}}}}}}}}}}}}}}}}}}}}}}",
"}}}}}}}}}}}>5ydzbvkr;}}}}}}}}}}}",
"}}}}}}}}O,dznmZd:6ubGM8}}}}}}}}}",
"}}}}}}}-iz1ffnp.    $uQS;}}}}}}}",
"}}}}}}2hdzf*ri. .     Ob~9}}}}}}",
"}}}}}4fi:4dmu.     X    8]u}}}}}",
"}}}}4ffl9:ts. $O&jSIq    1[0}}}}",
"}}}-f9,ixju.  rGbu5s]a uT;0]:}}}",
"}}+tf,--jd   .2uO   C~b)``OMG}}}",
"}}1eyz,9i.     .  .9KW)^[S#k!2}}",
"}@91lfcr.        ON_WW^)POSbaM}}",
"},e,9wt.        <I(KW```$$IX=T&}",
"}5l99t        5BQ~!(Qb5`cS5 .G7}",
"}ehny.       $IQQQb9+  u{G . xs}",
"Oine        OzYTW~9    Xk*   ux}",
"+fw        %SY!!~R_q         rc}",
"+h@       oMT!c#k(()%       =Hd}",
"Of&     X6SQS7   i)'x      =DDq}",
"}f<    .z~S6X X>x~`{Y   . =JDN8}",
"}tr   .kTpX oBK~RPMu$    =M03b,}",
"}3c.X:cB=    k~%        =UgMq0$}",
"}Om-+TvX     %YX       :MbPl98}}",
"}}yx+F&       u$      :S0<sck=}}",
"}}+Mgu               ;IS8<2n9}}}",
"}}}4T: .            ;AhJDtxg+}}}",
"}}}}pF+            ;/g<5zNx=}}}}",
"}}}}}kI&          >AkPnwcc:}}}}}",
"}}}}}}d)y      . :Pg7uDMx=}}}}}}",
"}}}}}}}5PRrO    =TIGUjMi$}}}}}}}",
"}}}}}}}}OsW)Pxq7T/TPDk: }}}}}}}}",
"}}}}}}}}}}X5xGSAAbg8=}}}}}}}}}}}",
"}}}}}}}}}}}}}}}..}}}}}}}}}}}}}}}"
};
