/* XPM */
static char *_557246566381[] = {
/* columns rows colors chars-per-pixel */
"64 64 116 2 ",
"   c #000000",
".  c #070807",
"X  c #080807",
"o  c #080708",
"O  c #0C0C0C",
"+  c #10100F",
"@  c #0F0F10",
"#  c #100F10",
"$  c #131313",
"%  c #181817",
"&  c #1C1C1B",
"*  c #20211F",
"=  c #232423",
"-  c #272827",
";  c #282927",
":  c #2C2D2C",
">  c #2F302E",
",  c #30312F",
"<  c #343433",
"1  c #373836",
"2  c #383837",
"3  c #3C3C3B",
"4  c #403F3F",
"5  c #3E403D",
"6  c #40413E",
"7  c #434442",
"8  c #474845",
"9  c #494A47",
"0  c #4C4C4B",
"q  c #4F504D",
"w  c #51524E",
"e  c #545453",
"r  c #575854",
"t  c #585956",
"y  c #5B5C5A",
"u  c #5F615C",
"i  c #61635E",
"p  c #636462",
"a  c #676962",
"s  c #696B66",
"d  c #6D6D6B",
"f  c #6F706C",
"g  c #71726D",
"h  c #75786F",
"j  c #747473",
"k  c #767971",
"l  c #7A7C75",
"z  c #7C7C7B",
"x  c #7F817A",
"c  c #82847D",
"v  c #858683",
"b  c #878982",
"n  c #8A8C85",
"m  c #8C8C8A",
"M  c #8F918B",
"N  c #92948D",
"B  c #949592",
"V  c #979994",
"C  c #9A9C96",
"Z  c #97989B",
"A  c #9C9D9A",
"S  c #9EA19C",
"D  c #A1A39E",
"F  c #9FA0A0",
"G  c #A4A5A2",
"H  c #A8A6A6",
"J  c #A6A9A3",
"K  c #A9AAA5",
"L  c #A5A5A8",
"P  c #A8A7AA",
"I  c #ACACAA",
"U  c #AEB1AB",
"Y  c #B1B3AE",
"T  c #B5B5B2",
"R  c #B6B9B3",
"E  c #B9BBB6",
"W  c #B7B8B8",
"Q  c #BCBDBA",
"!  c #BBC0B7",
"~  c #BFC1BC",
"^  c #C1C3BE",
"/  c #C3C8BF",
"(  c #BDBEC1",
")  c #C0BFC0",
"_  c #C4C4C3",
"`  c #C9C7C7",
"'  c #C6CAC3",
"]  c #CCCCC6",
"[  c #CCCCCA",
"{  c #D0CFC7",
"}  c #D0CFCC",
"|  c #CAD0C6",
" . c #CED0CD",
".. c #D0D0C7",
"X. c #D2D2CD",
"o. c #CDCDD0",
"O. c #D4D4D2",
"+. c #D8D6D4",
"@. c #D7D8D6",
"#. c #DADAD4",
"$. c #D6D5D9",
"%. c #D9D7D9",
"&. c #DDDDDB",
"*. c #E0DEDD",
"=. c #E2E1DD",
"-. c #E4E4E2",
";. c #E8E7E6",
":. c #E7E8E7",
">. c #EAEAE5",
",. c #EDECEA",
"<. c #F0EFEE",
"1. c #F1F0ED",
"2. c #F4F4F3",
"3. c #F8F8F6",
"4. c #FCFCFC",
"5. c None",
/* pixels */
"5.5.5.5.5.5.5.5.5.5.5.5.5.5.5.5.5.5.5.5.5.5.5.5.5.5.5.5.5.5.5.5.5.5.5.5.5.5.5.5.5.5.5.5.5.5.5.5.5.5.5.5.5.5.5.5.5.5.5.5.5.5.5.5.",
"5.5.5.5.5.5.5.5.5.5.5.5.5.5.5.5.5.5.5.5.5.5.5.5.5.5.        X O O         5.5.5.5.5.5.5.5.5.5.5.5.5.5.5.5.5.5.5.5.5.5.5.5.5.5.5.",
"5.5.5.5.5.5.5.5.5.5.5.5.5.5.5.5.5.5.5.5.5.5.    + : 8 u g x b n n n v j p 7 - .   5.5.5.5.5.5.5.5.5.5.5.5.5.5.5.5.5.5.5.5.5.5.5.",
"5.5.5.5.5.5.5.5.5.5.5.5.5.5.5.5.5.5.5.5.  & 8 s c N C D D J J I E Q Q Q Q T K B d 3 O   5.5.5.5.5.5.5.5.5.5.5.5.5.5.5.5.5.5.5.5.",
"5.5.5.5.5.5.5.5.5.5.5.5.5.5.5.5.5.5.. : i c V N N N V V D S K V d z B C I Q ^ _ ~ Q F i &   5.5.5.5.5.5.5.5.5.5.5.5.5.5.5.5.5.5.",
"5.5.5.5.5.5.5.5.5.5.5.5.5.5.5.5.X < i M D V c N M V V D D D C *       O & 2 i M Q [ [ ` T g %   5.5.5.5.5.5.5.5.5.5.5.5.5.5.5.5.",
"5.5.5.5.5.5.5.5.5.5.5.5.5.5.  & i c c M < i S c N D S S D S &   .               * i G [ O.O.Q y . 5.5.5.5.5.5.5.5.5.5.5.5.5.5.5.",
"5.5.5.5.5.5.5.5.5.5.5.5.5.  3 l c c c M u . i D S 8 c U S &                         o 9 I &.&.%.V &   5.5.5.5.5.5.5.5.5.5.5.5.5.",
"5.5.5.5.5.5.5.5.5.5.5.5.O e c c c N N n S i . f 3 6 K C &                               . y [ &.#.! 7   5.5.5.5.5.5.5.5.5.5.5.5.",
"5.5.5.5.5.5.5.5.5.5.5.% i c x c c 6 h N c C s X 9 Y V &                                     % B #.X.+.p   5.5.5.5.5.5.5.5.5.5.5.",
"5.5.5.5.5.5.5.5.5.  % i x x c c , e V n V N D c K V &                                           y #.=.=.d   5.5.5.5.5.5.5.5.5.5.",
"5.5.5.5.5.5.5.5.5.% i x x c c g % s : . 6 D V D B &   .                   . $ &               .   4 +.:.:.f   5.5.5.5.5.5.5.5.5.",
"5.5.5.5.5.5.5.5.O u x x x c c N , O 8 i % N G N &                   & y n P T Q e               X   1 #.,.,.i   5.5.5.5.5.5.5.5.",
"5.5.5.5.5.5.5.. w x f x c c c N N N N 3 9 K N &         1 e = - ; f E X. .[ [ [ %.v .                 3 -.,.-.3   5.5.5.5.5.5.5.",
"5.5.5.5.5.5.  5 x x c c 6 9 C N n N 0 w J N &         O y m R T Q  .Q G D A D ) [ :.A o       p I M ;   0 ,.1.[ & 5.5.5.5.5.5.5.",
"5.5.5.5.5.5.* h s x c , < & i c N M V K N &             & z ^ Q G e - .   .   g -.[ :.l   . n ,.>.1.-.7   z 3.3.Z   5.5.5.5.5.5.",
"5.5.5.5.5.. u h x c 5 $ N * * % c N S M &             $ j C j U :             % _ #.X.X.w d 1.#.*.&.<.} @   Q 4.,.0   5.5.5.5.5.",
"5.5.5.5.  1 h h c c x * . i C $ g D M &                 7 < 3 s   .         .   i =.{ ..#.+.=.=.-.;.-.3.0   : :.<.W o 5.5.5.5.5.",
"5.5.5.5.O i x c c c M c % 5 < 6 D N &                       % O               = E +.{ ..#.*.*.=.-.-.,.:.4   : v <.%.0   5.5.5.5.",
"5.5.5.  < x k : 6 M c M M % 5 S c * .                                 .   & n O.#.{ ..X.#.*.=.=.-.-.;.2   y :.v ( o.Z o 5.5.5.5.",
"5.5.5.. u c ; 5 c c N M N m C n &                                   .   3 [ -.O.{ { X.#.&.=.=.;.,.4.z   < &.4.j e o.o.7   5.5.5.",
"5.5.5.- x r * c c N c c M N n &                                       e @.&. .X.{ X.#.*.*.-.-.:.[ p $   F 4.$.$ # ( %.m   5.5.5.",
"5.5.. 6 c 6 ; N N V ; s C c &                                     $ m &.+.X.X...{ +.#.*.*.-.-.<.3     @ O.2.y   . v *.Q * 5.5.5.",
"5.5.O h c h O 6 g ; 6 S c %                                     3 ( &.O.+.X.X.{ X.#.#.*.,.,.-.2.p     j 4.e   o   7 $.o.0   5.5.",
"5.5.* x x c s * & 9 C c &                                 7 x F O.O. .@.O.X.] { +.=.1.1.G M <.,.-.$ : 3.I         # W $.z   5.5.",
"5.. 5 c x c N V N S c %                                 y  .[ [ [ [ O.@.X.] ..=.:.Q c 6   O O.<.2.Z [ 4.e   .       B $.Z o 5.5.",
"5.  w c c n n n N c % .                               & ~ ) ~ [ O.O.@.X.#.*.{ D e .     o   e 3.,.2.2.` O           s o.I & 5.5.",
"5.. s c c M M N c %                               .   d [ Q [  .O.O.O.O.D e &       .         B 4.*.<.y             7 _ Q 1 5.5.",
"5.+ f c n M N b &                                   & I _ ` o.O.+.+.X.#.t                     * &.4.B               * Q _ 9   5.",
"5.$ x n n N c %   .                               e T _ _ [  .O.+.X...{ #.t   X                 * i @               & R ' u   5.",
"5.& c M N c %                                 O n [ ^ ~ [ [ O.O.X.X.{ ..*.=.p                                       O J | a   5.",
"5.* n M x &   .                               b  .Q ^ ` [ O.&.@.#.] { #.#.*.<.q                                     % U / p   5.",
"5.* n V 2                                   e [ Q ~ ` ` &.} 0 < ~ #.{ #.*.*.:.+.$                                 $ S ! ! u   5.",
"5.& b V <                                 9 _ ^ Q Q [ &.H ;     + A <.*.*.=.=.3.z                               $ S ' U K r   5.",
"5.% c C 7                             : v ' ^ Q _ O.O.d .         X s { -.=.-.,.$.$                           @ S ' Y J J 9   5.",
"5.O l C r                         : b Q ` Q Q [ ' m =               . f -.-.;.-.4.z   .                     @ S ' R U S G 5   5.",
"5.  f S s                   .   7 Q ~ E Q ] ' v *               + d #.:.-.>.:.-.3.T                       $ A / R Y G A S ; 5.5.",
"5.  t S v .                   = Y T Y _ _ z :             % w B { :.=.&.-.-.,.2.4.V                     + Z | | / I A S M % 5.5.",
"5.  6 D C &                 - I T T [ I 1         . s I K ^ =.>.>.,.,.2.3.3.-.` z O                   @ V  .M 7 9 M G S z   5.5.",
"5.5.- C J 7               = I E Q ` n $           ; :.%.X.X.*.{ T H G A z 0 &                       $ V O.l = p > $ M F t   5.5.",
"5.5.O v K j             : H E Q A 5                 n #.' *.i #                                   $ Z | S - U Q U ; t F >   5.5.",
"5.5.  i K S %     & z B T E R y .                   . G *.] +       .   .                       $ Z / ! S M R V U 1 y m @ 5.5.5.",
"5.5.5.> D Y q     u ] T T Y 1                         t >.T X                                 # A [ ~ ! ~ ! S G d * m t   5.5.5.",
"5.5.5.. v Y B O   7 E U R 3                           & =.T                                 $ F $.j 5 ~ ! D G p * z M -   5.5.5.",
"5.5.5.  9 Y R 9   : E Q z                               N 4.0                             % G O.x , > 5 T F A N m B d   5.5.5.5.",
"5.5.5.5.O N E S   , Q Q <                               o p =                           $ H O.F & ' A   2 F Z Z m m ,   5.5.5.5.",
"5.5.5.5.  9 T ~ e 2 ] z                                                               $ G [ Q G $ 7 > V * 4 L m m p   5.5.5.5.5.",
"5.5.5.5.5.. n Q J z ~ &                                                             $ H %._ W ) V u - p : c Z v v -   5.5.5.5.5.",
"5.5.5.5.5.  : I T ^ f                                                         .   $ L &.m g ! ! / ~ 8 : m G m m 0   5.5.5.5.5.5.",
"5.5.5.5.5.5.  y Q E j                                                           $ P &.v < F | ~ R F J J Z m m d @ 5.5.5.5.5.5.5.",
"5.5.5.5.5.5.5.  z ~ ] d                                                       # P $._ - B N > u U S S V B v z *   5.5.5.5.5.5.5.",
"5.5.5.5.5.5.5.5.+ A _ ] d                                                   # P +.( ` q   & u & x F S B m m >   5.5.5.5.5.5.5.5.",
"5.5.5.5.5.5.5.5.  & D _ [ z                                               $ P *._ ` Q Q S ! S > B S V M v 2   5.5.5.5.5.5.5.5.5.",
"5.5.5.5.5.5.5.5.5.  & G [ %.A %                                         # P <.v # A ` T | S < n F V B m 2   5.5.5.5.5.5.5.5.5.5.",
"5.5.5.5.5.5.5.5.5.5.  & F $.&._ 7                                     $ P -.z 2 p . A ' R U K S S Z b <   5.5.5.5.5.5.5.5.5.5.5.",
"5.5.5.5.5.5.5.5.5.5.5.  + v &.&.&.m &                               $ I &.W 7 W o.s o V ! J A A S x *   5.5.5.5.5.5.5.5.5.5.5.5.",
"5.5.5.5.5.5.5.5.5.5.5.5.5.  t _ #.#...c *                         $ P %.` ` [ ) T  .a > U S S S p @   5.5.5.5.5.5.5.5.5.5.5.5.5.",
"5.5.5.5.5.5.5.5.5.5.5.5.5.5.  = m X.=.<.#.V 7 O                 $ P $.[ ` ` ) W E ! ~ K J F v 1   5.5.5.5.5.5.5.5.5.5.5.5.5.5.5.",
"5.5.5.5.5.5.5.5.5.5.5.5.5.5.5.5.  3 D =.<.2.<.{ Z p < $       $ P $.[ [ [ ) W W E ! ! U n 9 O   5.5.5.5.5.5.5.5.5.5.5.5.5.5.5.5.",
"5.5.5.5.5.5.5.5.5.5.5.5.5.5.5.5.5.    3 B O.<.4.4.4.2.%._ W z L o.[ [ ` ) Q Q _ ' E n 7 @   5.5.5.5.5.5.5.5.5.5.5.5.5.5.5.5.5.5.",
"5.5.5.5.5.5.5.5.5.5.5.5.5.5.5.5.5.5.5.    * i F o.,.2.4.2.*.$.$.O.+.O.$.o.Q Y B p :     5.5.5.5.5.5.5.5.5.5.5.5.5.5.5.5.5.5.5.5.",
"5.5.5.5.5.5.5.5.5.5.5.5.5.5.5.5.5.5.5.5.5.5.    $ 3 p z m n Z F G A m j t 2 %     5.5.5.5.5.5.5.5.5.5.5.5.5.5.5.5.5.5.5.5.5.5.5.",
"5.5.5.5.5.5.5.5.5.5.5.5.5.5.5.5.5.5.5.5.5.5.5.5.5.5.            .           5.5.5.5.5.5.5.5.5.5.5.5.5.5.5.5.5.5.5.5.5.5.5.5.5.5.",
"5.5.5.5.5.5.5.5.5.5.5.5.5.5.5.5.5.5.5.5.5.5.5.5.5.5.5.5.5.5.5.5.5.5.5.5.5.5.5.5.5.5.5.5.5.5.5.5.5.5.5.5.5.5.5.5.5.5.5.5.5.5.5.5."
};
